<mxfile host="app.diagrams.net" agent="Mozilla/5.0 (X11; CrOS x86_64 14541.0.0) AppleWebKit/537.36 (KHTML, like Gecko) Chrome/135.0.0.0 Safari/537.36" version="27.0.4" pages="4">
  <diagram id="C5RBs43oDa-KdzZeNtuy" name="      CADASTRAR CONTATO">
    <mxGraphModel dx="1426" dy="801" grid="1" gridSize="10" guides="1" tooltips="1" connect="1" arrows="1" fold="1" page="1" pageScale="1" pageWidth="827" pageHeight="1169" math="0" shadow="0">
      <root>
        <mxCell id="WIyWlLk6GJQsqaUBKTNV-0" />
        <mxCell id="WIyWlLk6GJQsqaUBKTNV-1" parent="WIyWlLk6GJQsqaUBKTNV-0" />
        <mxCell id="WIyWlLk6GJQsqaUBKTNV-2" value="" style="rounded=0;html=1;jettySize=auto;orthogonalLoop=1;fontSize=11;endArrow=block;endFill=0;endSize=8;strokeWidth=1;shadow=0;labelBackgroundColor=none;edgeStyle=orthogonalEdgeStyle;" parent="WIyWlLk6GJQsqaUBKTNV-1" edge="1">
          <mxGeometry relative="1" as="geometry">
            <mxPoint x="220" y="120" as="sourcePoint" />
            <mxPoint x="220" y="170" as="targetPoint" />
            <Array as="points">
              <mxPoint x="220" y="150" />
              <mxPoint x="220" y="150" />
            </Array>
          </mxGeometry>
        </mxCell>
        <mxCell id="WIyWlLk6GJQsqaUBKTNV-8" value="No" style="rounded=0;html=1;jettySize=auto;orthogonalLoop=1;fontSize=11;endArrow=block;endFill=0;endSize=8;strokeWidth=1;shadow=0;labelBackgroundColor=none;edgeStyle=orthogonalEdgeStyle;" parent="WIyWlLk6GJQsqaUBKTNV-1" edge="1">
          <mxGeometry x="0.3333" y="20" relative="1" as="geometry">
            <mxPoint as="offset" />
            <mxPoint x="220" y="370" as="sourcePoint" />
            <mxPoint x="220" y="430" as="targetPoint" />
          </mxGeometry>
        </mxCell>
        <mxCell id="WIyWlLk6GJQsqaUBKTNV-9" value="Yes" style="edgeStyle=orthogonalEdgeStyle;rounded=0;html=1;jettySize=auto;orthogonalLoop=1;fontSize=11;endArrow=block;endFill=0;endSize=8;strokeWidth=1;shadow=0;labelBackgroundColor=none;" parent="WIyWlLk6GJQsqaUBKTNV-1" edge="1">
          <mxGeometry y="10" relative="1" as="geometry">
            <mxPoint as="offset" />
            <mxPoint x="270" y="330" as="sourcePoint" />
            <mxPoint x="320" y="330" as="targetPoint" />
          </mxGeometry>
        </mxCell>
        <mxCell id="gaLD9mN4UjeoKHUlXt4z-0" value="Início" style="ellipse;whiteSpace=wrap;html=1;" vertex="1" parent="WIyWlLk6GJQsqaUBKTNV-1">
          <mxGeometry x="160" y="40" width="120" height="80" as="geometry" />
        </mxCell>
        <mxCell id="gaLD9mN4UjeoKHUlXt4z-3" value="Inserir o nome" style="shape=parallelogram;perimeter=parallelogramPerimeter;whiteSpace=wrap;html=1;fixedSize=1;" vertex="1" parent="WIyWlLk6GJQsqaUBKTNV-1">
          <mxGeometry x="160" y="180" width="120" height="60" as="geometry" />
        </mxCell>
        <mxCell id="gaLD9mN4UjeoKHUlXt4z-7" value="" style="rounded=0;html=1;jettySize=auto;orthogonalLoop=1;fontSize=11;endArrow=block;endFill=0;endSize=8;strokeWidth=1;shadow=0;labelBackgroundColor=none;edgeStyle=orthogonalEdgeStyle;" edge="1" parent="WIyWlLk6GJQsqaUBKTNV-1">
          <mxGeometry relative="1" as="geometry">
            <mxPoint x="219.5" y="240" as="sourcePoint" />
            <mxPoint x="219.5" y="290" as="targetPoint" />
          </mxGeometry>
        </mxCell>
        <mxCell id="gaLD9mN4UjeoKHUlXt4z-8" value="Inserir o número&amp;nbsp;" style="shape=parallelogram;perimeter=parallelogramPerimeter;whiteSpace=wrap;html=1;fixedSize=1;" vertex="1" parent="WIyWlLk6GJQsqaUBKTNV-1">
          <mxGeometry x="160" y="300" width="120" height="60" as="geometry" />
        </mxCell>
        <mxCell id="gaLD9mN4UjeoKHUlXt4z-10" value="Contato" style="rhombus;whiteSpace=wrap;html=1;" vertex="1" parent="WIyWlLk6GJQsqaUBKTNV-1">
          <mxGeometry x="520" y="290" width="80" height="80" as="geometry" />
        </mxCell>
        <mxCell id="gaLD9mN4UjeoKHUlXt4z-12" value="" style="rounded=0;html=1;jettySize=auto;orthogonalLoop=1;fontSize=11;endArrow=block;endFill=0;endSize=8;strokeWidth=1;shadow=0;labelBackgroundColor=none;edgeStyle=orthogonalEdgeStyle;exitX=1;exitY=0.5;exitDx=0;exitDy=0;exitPerimeter=0;" edge="1" parent="WIyWlLk6GJQsqaUBKTNV-1">
          <mxGeometry relative="1" as="geometry">
            <mxPoint x="440" y="330" as="sourcePoint" />
            <mxPoint x="520" y="330" as="targetPoint" />
            <Array as="points" />
          </mxGeometry>
        </mxCell>
        <mxCell id="gaLD9mN4UjeoKHUlXt4z-13" value="FIM" style="ellipse;whiteSpace=wrap;html=1;" vertex="1" parent="WIyWlLk6GJQsqaUBKTNV-1">
          <mxGeometry x="500" y="420" width="120" height="80" as="geometry" />
        </mxCell>
        <mxCell id="gaLD9mN4UjeoKHUlXt4z-16" value="" style="rounded=0;html=1;jettySize=auto;orthogonalLoop=1;fontSize=11;endArrow=block;endFill=0;endSize=8;strokeWidth=1;shadow=0;labelBackgroundColor=none;edgeStyle=orthogonalEdgeStyle;" edge="1" parent="WIyWlLk6GJQsqaUBKTNV-1">
          <mxGeometry relative="1" as="geometry">
            <mxPoint x="559.5" y="370" as="sourcePoint" />
            <mxPoint x="559.5" y="420" as="targetPoint" />
          </mxGeometry>
        </mxCell>
        <mxCell id="gaLD9mN4UjeoKHUlXt4z-17" value="&quot;O número informado não existe. Tente novamente&quot;" style="shape=document;whiteSpace=wrap;html=1;boundedLbl=1;" vertex="1" parent="WIyWlLk6GJQsqaUBKTNV-1">
          <mxGeometry x="160" y="440" width="120" height="80" as="geometry" />
        </mxCell>
        <mxCell id="gaLD9mN4UjeoKHUlXt4z-18" value="&quot;Contato salvo&quot;" style="shape=document;whiteSpace=wrap;html=1;boundedLbl=1;" vertex="1" parent="WIyWlLk6GJQsqaUBKTNV-1">
          <mxGeometry x="320" y="300" width="120" height="80" as="geometry" />
        </mxCell>
      </root>
    </mxGraphModel>
  </diagram>
  <diagram id="wVwtAiimmQQJa2guMinv" name="BAIXAR UM NOVO APLICATIVO">
    <mxGraphModel dx="1426" dy="801" grid="1" gridSize="10" guides="1" tooltips="1" connect="1" arrows="1" fold="1" page="1" pageScale="1" pageWidth="827" pageHeight="1169" math="0" shadow="0">
      <root>
        <mxCell id="0" />
        <mxCell id="1" parent="0" />
        <mxCell id="6XRRvNXiRQkdFdEWMrNe-1" value="Início" style="ellipse;whiteSpace=wrap;html=1;" vertex="1" parent="1">
          <mxGeometry x="120" y="80" width="120" height="80" as="geometry" />
        </mxCell>
        <mxCell id="6XRRvNXiRQkdFdEWMrNe-2" value="" style="rounded=0;html=1;jettySize=auto;orthogonalLoop=1;fontSize=11;endArrow=block;endFill=0;endSize=8;strokeWidth=1;shadow=0;labelBackgroundColor=none;edgeStyle=orthogonalEdgeStyle;" edge="1" parent="1">
          <mxGeometry relative="1" as="geometry">
            <mxPoint x="179.5" y="160" as="sourcePoint" />
            <mxPoint x="179.5" y="210" as="targetPoint" />
          </mxGeometry>
        </mxCell>
        <mxCell id="6XRRvNXiRQkdFdEWMrNe-3" value="Abrir a aba &quot;PlayStore&quot; no seu aparelho" style="shape=parallelogram;perimeter=parallelogramPerimeter;whiteSpace=wrap;html=1;fixedSize=1;" vertex="1" parent="1">
          <mxGeometry x="120" y="210" width="120" height="60" as="geometry" />
        </mxCell>
        <mxCell id="6XRRvNXiRQkdFdEWMrNe-4" value="" style="rounded=0;html=1;jettySize=auto;orthogonalLoop=1;fontSize=11;endArrow=block;endFill=0;endSize=8;strokeWidth=1;shadow=0;labelBackgroundColor=none;edgeStyle=orthogonalEdgeStyle;" edge="1" parent="1">
          <mxGeometry relative="1" as="geometry">
            <mxPoint x="179.5" y="270" as="sourcePoint" />
            <mxPoint x="179.5" y="320" as="targetPoint" />
          </mxGeometry>
        </mxCell>
        <mxCell id="6XRRvNXiRQkdFdEWMrNe-5" value="Pesquisar o nome do app desejado na lupa" style="shape=parallelogram;perimeter=parallelogramPerimeter;whiteSpace=wrap;html=1;fixedSize=1;" vertex="1" parent="1">
          <mxGeometry x="80" y="320" width="180" height="70" as="geometry" />
        </mxCell>
        <mxCell id="6XRRvNXiRQkdFdEWMrNe-6" value="" style="rounded=0;html=1;jettySize=auto;orthogonalLoop=1;fontSize=11;endArrow=block;endFill=0;endSize=8;strokeWidth=1;shadow=0;labelBackgroundColor=none;edgeStyle=orthogonalEdgeStyle;" edge="1" parent="1">
          <mxGeometry relative="1" as="geometry">
            <mxPoint x="179.5" y="390" as="sourcePoint" />
            <mxPoint x="179.5" y="440" as="targetPoint" />
          </mxGeometry>
        </mxCell>
        <mxCell id="6XRRvNXiRQkdFdEWMrNe-9" value="Baixar aplicativo" style="shape=parallelogram;perimeter=parallelogramPerimeter;whiteSpace=wrap;html=1;fixedSize=1;" vertex="1" parent="1">
          <mxGeometry x="120" y="440" width="120" height="60" as="geometry" />
        </mxCell>
        <mxCell id="6XRRvNXiRQkdFdEWMrNe-10" value="" style="rounded=0;html=1;jettySize=auto;orthogonalLoop=1;fontSize=11;endArrow=block;endFill=0;endSize=8;strokeWidth=1;shadow=0;labelBackgroundColor=none;edgeStyle=orthogonalEdgeStyle;" edge="1" parent="1" source="6XRRvNXiRQkdFdEWMrNe-9">
          <mxGeometry relative="1" as="geometry">
            <mxPoint x="270" y="460" as="sourcePoint" />
            <mxPoint x="290" y="470" as="targetPoint" />
            <Array as="points">
              <mxPoint x="290" y="470" />
              <mxPoint x="290" y="470" />
            </Array>
          </mxGeometry>
        </mxCell>
        <mxCell id="6XRRvNXiRQkdFdEWMrNe-11" value="YES" style="text;html=1;align=center;verticalAlign=middle;resizable=0;points=[];autosize=1;strokeColor=none;fillColor=none;" vertex="1" parent="1">
          <mxGeometry x="230" y="450" width="50" height="30" as="geometry" />
        </mxCell>
        <mxCell id="6XRRvNXiRQkdFdEWMrNe-12" value="" style="rounded=0;html=1;jettySize=auto;orthogonalLoop=1;fontSize=11;endArrow=block;endFill=0;endSize=8;strokeWidth=1;shadow=0;labelBackgroundColor=none;edgeStyle=orthogonalEdgeStyle;" edge="1" parent="1">
          <mxGeometry relative="1" as="geometry">
            <mxPoint x="179.5" y="500" as="sourcePoint" />
            <mxPoint x="180" y="540" as="targetPoint" />
          </mxGeometry>
        </mxCell>
        <mxCell id="6XRRvNXiRQkdFdEWMrNe-13" value="NO" style="text;html=1;align=center;verticalAlign=middle;resizable=0;points=[];autosize=1;strokeColor=none;fillColor=none;" vertex="1" parent="1">
          <mxGeometry x="140" y="500" width="40" height="30" as="geometry" />
        </mxCell>
        <mxCell id="6XRRvNXiRQkdFdEWMrNe-14" value="&quot;Não há armazenamento nesse aparelho. Libere espaço&quot;" style="shape=document;whiteSpace=wrap;html=1;boundedLbl=1;" vertex="1" parent="1">
          <mxGeometry x="110" y="540" width="120" height="80" as="geometry" />
        </mxCell>
        <mxCell id="6XRRvNXiRQkdFdEWMrNe-18" value="" style="edgeStyle=orthogonalEdgeStyle;rounded=0;orthogonalLoop=1;jettySize=auto;html=1;" edge="1" parent="1" source="6XRRvNXiRQkdFdEWMrNe-15">
          <mxGeometry relative="1" as="geometry">
            <mxPoint x="490" y="480" as="targetPoint" />
          </mxGeometry>
        </mxCell>
        <mxCell id="6XRRvNXiRQkdFdEWMrNe-15" value="&quot;*Nome do app* instalado com sucesso&quot;" style="shape=document;whiteSpace=wrap;html=1;boundedLbl=1;" vertex="1" parent="1">
          <mxGeometry x="290" y="440" width="120" height="80" as="geometry" />
        </mxCell>
        <mxCell id="6XRRvNXiRQkdFdEWMrNe-22" value="" style="edgeStyle=orthogonalEdgeStyle;rounded=0;orthogonalLoop=1;jettySize=auto;html=1;" edge="1" parent="1" source="6XRRvNXiRQkdFdEWMrNe-17">
          <mxGeometry relative="1" as="geometry">
            <mxPoint x="650" y="480" as="targetPoint" />
          </mxGeometry>
        </mxCell>
        <mxCell id="6XRRvNXiRQkdFdEWMrNe-17" value="Aplicativo" style="rhombus;whiteSpace=wrap;html=1;" vertex="1" parent="1">
          <mxGeometry x="490" y="440" width="80" height="80" as="geometry" />
        </mxCell>
        <mxCell id="6XRRvNXiRQkdFdEWMrNe-23" value="FIM" style="ellipse;whiteSpace=wrap;html=1;" vertex="1" parent="1">
          <mxGeometry x="650" y="440" width="120" height="80" as="geometry" />
        </mxCell>
      </root>
    </mxGraphModel>
  </diagram>
  <diagram id="dyY59S4JQWf1vy08t0UR" name="MUDAR PAPEL DE PAREDE">
    <mxGraphModel dx="758" dy="417" grid="1" gridSize="10" guides="1" tooltips="1" connect="1" arrows="1" fold="1" page="1" pageScale="1" pageWidth="827" pageHeight="1169" math="0" shadow="0">
      <root>
        <mxCell id="0" />
        <mxCell id="1" parent="0" />
        <mxCell id="3eLjku4E9EVzUXbJX-0F-2" value="" style="edgeStyle=orthogonalEdgeStyle;rounded=0;orthogonalLoop=1;jettySize=auto;html=1;" edge="1" parent="1" source="5UX3cgMaidRTg-Vdvk1v-1">
          <mxGeometry relative="1" as="geometry">
            <mxPoint x="240" y="430" as="targetPoint" />
            <mxPoint x="230" y="450" as="sourcePoint" />
            <Array as="points">
              <mxPoint x="220" y="430" />
              <mxPoint x="220" y="430" />
            </Array>
          </mxGeometry>
        </mxCell>
        <mxCell id="7IM5L_nhPnx4NgpV7uef-2" value="" style="edgeStyle=orthogonalEdgeStyle;rounded=0;orthogonalLoop=1;jettySize=auto;html=1;" parent="1" edge="1">
          <mxGeometry relative="1" as="geometry">
            <mxPoint x="120" y="170" as="targetPoint" />
            <mxPoint x="120.00000000000011" y="120" as="sourcePoint" />
          </mxGeometry>
        </mxCell>
        <mxCell id="QADlvnmnareVScv-rf2W-1" value="Início" style="ellipse;whiteSpace=wrap;html=1;" parent="1" vertex="1">
          <mxGeometry x="60" y="40" width="120" height="80" as="geometry" />
        </mxCell>
        <mxCell id="7IM5L_nhPnx4NgpV7uef-4" value="" style="edgeStyle=orthogonalEdgeStyle;rounded=0;orthogonalLoop=1;jettySize=auto;html=1;" parent="1" source="7IM5L_nhPnx4NgpV7uef-1" edge="1">
          <mxGeometry relative="1" as="geometry">
            <mxPoint x="120" y="290" as="targetPoint" />
          </mxGeometry>
        </mxCell>
        <mxCell id="7IM5L_nhPnx4NgpV7uef-1" value="Clicar no app &quot;Configurações&quot;&amp;nbsp;" style="shape=parallelogram;perimeter=parallelogramPerimeter;whiteSpace=wrap;html=1;fixedSize=1;" parent="1" vertex="1">
          <mxGeometry x="60" y="170" width="120" height="60" as="geometry" />
        </mxCell>
        <mxCell id="7IM5L_nhPnx4NgpV7uef-3" value="Clicar na opção &quot;Papel de parede&quot;" style="shape=parallelogram;perimeter=parallelogramPerimeter;whiteSpace=wrap;html=1;fixedSize=1;" parent="1" vertex="1">
          <mxGeometry x="60" y="290" width="120" height="60" as="geometry" />
        </mxCell>
        <mxCell id="qRswPpsd315rRNTnhJcQ-2" value="" style="edgeStyle=orthogonalEdgeStyle;rounded=0;orthogonalLoop=1;jettySize=auto;html=1;" edge="1" parent="1">
          <mxGeometry relative="1" as="geometry">
            <mxPoint x="120" y="400" as="targetPoint" />
            <mxPoint x="119.5" y="350" as="sourcePoint" />
          </mxGeometry>
        </mxCell>
        <mxCell id="5UX3cgMaidRTg-Vdvk1v-1" value="Escolher foto" style="shape=parallelogram;perimeter=parallelogramPerimeter;whiteSpace=wrap;html=1;fixedSize=1;" vertex="1" parent="1">
          <mxGeometry x="60" y="400" width="120" height="60" as="geometry" />
        </mxCell>
        <mxCell id="3eLjku4E9EVzUXbJX-0F-3" value="&quot;Papel de parede atualizado&quot;" style="shape=document;whiteSpace=wrap;html=1;boundedLbl=1;" vertex="1" parent="1">
          <mxGeometry x="240" y="390" width="120" height="80" as="geometry" />
        </mxCell>
        <mxCell id="3eLjku4E9EVzUXbJX-0F-4" value="Yes" style="text;html=1;align=center;verticalAlign=middle;resizable=0;points=[];autosize=1;strokeColor=none;fillColor=none;" vertex="1" parent="1">
          <mxGeometry x="185" y="400" width="40" height="30" as="geometry" />
        </mxCell>
        <mxCell id="3eLjku4E9EVzUXbJX-0F-6" value="" style="edgeStyle=orthogonalEdgeStyle;rounded=0;orthogonalLoop=1;jettySize=auto;html=1;" edge="1" parent="1">
          <mxGeometry relative="1" as="geometry">
            <mxPoint x="119.74" y="510" as="targetPoint" />
            <mxPoint x="119.74" y="460" as="sourcePoint" />
          </mxGeometry>
        </mxCell>
        <mxCell id="3eLjku4E9EVzUXbJX-0F-7" value="No" style="text;html=1;align=center;verticalAlign=middle;resizable=0;points=[];autosize=1;strokeColor=none;fillColor=none;" vertex="1" parent="1">
          <mxGeometry x="80" y="470" width="40" height="30" as="geometry" />
        </mxCell>
        <mxCell id="3eLjku4E9EVzUXbJX-0F-8" value="&quot;O formato da imagem não é compatível&quot;" style="shape=document;whiteSpace=wrap;html=1;boundedLbl=1;" vertex="1" parent="1">
          <mxGeometry x="65" y="514.5" width="120" height="80" as="geometry" />
        </mxCell>
        <mxCell id="3eLjku4E9EVzUXbJX-0F-9" value="" style="edgeStyle=orthogonalEdgeStyle;rounded=0;orthogonalLoop=1;jettySize=auto;html=1;" edge="1" parent="1" target="5UX3cgMaidRTg-Vdvk1v-1">
          <mxGeometry relative="1" as="geometry">
            <mxPoint x="120" y="610" as="sourcePoint" />
            <mxPoint x="20" y="420" as="targetPoint" />
            <Array as="points">
              <mxPoint x="120" y="611" />
              <mxPoint x="10" y="611" />
              <mxPoint x="10" y="420" />
            </Array>
          </mxGeometry>
        </mxCell>
        <mxCell id="3eLjku4E9EVzUXbJX-0F-10" value="" style="endArrow=none;html=1;rounded=0;entryX=0.483;entryY=0.884;entryDx=0;entryDy=0;entryPerimeter=0;" edge="1" parent="1" target="3eLjku4E9EVzUXbJX-0F-8">
          <mxGeometry width="50" height="50" relative="1" as="geometry">
            <mxPoint x="120" y="612" as="sourcePoint" />
            <mxPoint x="120" y="570" as="targetPoint" />
            <Array as="points" />
          </mxGeometry>
        </mxCell>
        <mxCell id="t0DBfeQ0FD2x1rm-nHr9-2" value="" style="edgeStyle=orthogonalEdgeStyle;rounded=0;orthogonalLoop=1;jettySize=auto;html=1;exitX=1.014;exitY=0.365;exitDx=0;exitDy=0;exitPerimeter=0;" edge="1" parent="1">
          <mxGeometry relative="1" as="geometry">
            <mxPoint x="360.00000000000006" y="429.19999999999993" as="sourcePoint" />
            <mxPoint x="408.32" y="430" as="targetPoint" />
            <Array as="points">
              <mxPoint x="384.32" y="429" />
            </Array>
          </mxGeometry>
        </mxCell>
        <mxCell id="t0DBfeQ0FD2x1rm-nHr9-4" value="Walpapper" style="rhombus;whiteSpace=wrap;html=1;fontFamily=Helvetica;fontSize=11;fontColor=default;labelBackgroundColor=default;" vertex="1" parent="1">
          <mxGeometry x="410" y="390" width="80" height="80" as="geometry" />
        </mxCell>
        <mxCell id="t0DBfeQ0FD2x1rm-nHr9-5" value="" style="edgeStyle=orthogonalEdgeStyle;rounded=0;orthogonalLoop=1;jettySize=auto;html=1;" edge="1" parent="1">
          <mxGeometry relative="1" as="geometry">
            <mxPoint x="490" y="430" as="sourcePoint" />
            <mxPoint x="540" y="430" as="targetPoint" />
            <Array as="points">
              <mxPoint x="530" y="430" />
              <mxPoint x="530" y="430" />
            </Array>
          </mxGeometry>
        </mxCell>
        <mxCell id="t0DBfeQ0FD2x1rm-nHr9-6" value="Fim" style="ellipse;whiteSpace=wrap;html=1;fontFamily=Helvetica;fontSize=11;fontColor=default;labelBackgroundColor=default;" vertex="1" parent="1">
          <mxGeometry x="540" y="390" width="120" height="80" as="geometry" />
        </mxCell>
      </root>
    </mxGraphModel>
  </diagram>
  <diagram id="v70HLsG_ZV-KlqrBjRGS" name="CRIAR SENHA">
    <mxGraphModel dx="1163" dy="639" grid="1" gridSize="10" guides="1" tooltips="1" connect="1" arrows="1" fold="1" page="1" pageScale="1" pageWidth="827" pageHeight="1169" math="0" shadow="0">
      <root>
        <mxCell id="0" />
        <mxCell id="1" parent="0" />
        <mxCell id="qlmTELffqwhHPVURvVIi-1" value="Início" style="ellipse;whiteSpace=wrap;html=1;" parent="1" vertex="1">
          <mxGeometry x="110" y="70" width="120" height="80" as="geometry" />
        </mxCell>
        <mxCell id="OMFtolMQYsGiKLSfM7Vm-1" value="" style="endArrow=classic;html=1;rounded=0;strokeColor=default;align=center;verticalAlign=middle;fontFamily=Helvetica;fontSize=11;fontColor=default;labelBackgroundColor=default;edgeStyle=orthogonalEdgeStyle;" edge="1" parent="1">
          <mxGeometry width="50" height="50" relative="1" as="geometry">
            <mxPoint x="169.5" y="150" as="sourcePoint" />
            <mxPoint x="169.5" y="200" as="targetPoint" />
          </mxGeometry>
        </mxCell>
        <mxCell id="7jqKg4gLYyvavkcn8b0E-1" value="&lt;font style=&quot;font-size: 13px;&quot;&gt;Clicar no app&amp;nbsp;&lt;/font&gt;&lt;div&gt;&lt;font style=&quot;&quot;&gt;&lt;font style=&quot;font-size: 13px;&quot;&gt;&quot;Configurações&lt;/font&gt;&lt;span style=&quot;font-size: 12px;&quot;&gt;&quot;&lt;/span&gt;&lt;/font&gt;&lt;/div&gt;" style="shape=parallelogram;perimeter=parallelogramPerimeter;whiteSpace=wrap;html=1;fixedSize=1;fontFamily=Helvetica;fontSize=11;fontColor=default;labelBackgroundColor=default;" vertex="1" parent="1">
          <mxGeometry x="90" y="200" width="150" height="70" as="geometry" />
        </mxCell>
        <mxCell id="PJtLWt17phJKSAp1JQ1G-1" value="" style="endArrow=classic;html=1;rounded=0;strokeColor=default;align=center;verticalAlign=middle;fontFamily=Helvetica;fontSize=11;fontColor=default;labelBackgroundColor=default;edgeStyle=orthogonalEdgeStyle;" edge="1" parent="1">
          <mxGeometry width="50" height="50" relative="1" as="geometry">
            <mxPoint x="164.5" y="270" as="sourcePoint" />
            <mxPoint x="164.5" y="320" as="targetPoint" />
          </mxGeometry>
        </mxCell>
        <mxCell id="PJtLWt17phJKSAp1JQ1G-2" value="&lt;font style=&quot;font-size: 13px;&quot;&gt;Clicar na opção&lt;/font&gt;&lt;div&gt;&lt;font style=&quot;font-size: 13px;&quot;&gt;&quot;Tela de bloqueio&quot;&lt;/font&gt;&lt;/div&gt;" style="shape=parallelogram;perimeter=parallelogramPerimeter;whiteSpace=wrap;html=1;fixedSize=1;fontFamily=Helvetica;fontSize=11;fontColor=default;labelBackgroundColor=default;" vertex="1" parent="1">
          <mxGeometry x="90" y="320" width="145" height="70" as="geometry" />
        </mxCell>
        <mxCell id="PJtLWt17phJKSAp1JQ1G-3" value="" style="endArrow=classic;html=1;rounded=0;strokeColor=default;align=center;verticalAlign=middle;fontFamily=Helvetica;fontSize=11;fontColor=default;labelBackgroundColor=default;edgeStyle=orthogonalEdgeStyle;" edge="1" parent="1">
          <mxGeometry width="50" height="50" relative="1" as="geometry">
            <mxPoint x="164.5" y="390" as="sourcePoint" />
            <mxPoint x="164.5" y="440" as="targetPoint" />
          </mxGeometry>
        </mxCell>
        <mxCell id="PJtLWt17phJKSAp1JQ1G-4" value="&lt;font style=&quot;font-size: 13px;&quot;&gt;Clicar na opção&lt;/font&gt;&lt;div&gt;&lt;font style=&quot;font-size: 13px;&quot;&gt;&quot;Tipo de bloqueio&quot;&lt;/font&gt;&lt;/div&gt;" style="shape=parallelogram;perimeter=parallelogramPerimeter;whiteSpace=wrap;html=1;fixedSize=1;fontFamily=Helvetica;fontSize=11;fontColor=default;labelBackgroundColor=default;" vertex="1" parent="1">
          <mxGeometry x="85" y="440" width="150" height="70" as="geometry" />
        </mxCell>
        <mxCell id="PJtLWt17phJKSAp1JQ1G-5" value="" style="endArrow=classic;html=1;rounded=0;strokeColor=default;align=center;verticalAlign=middle;fontFamily=Helvetica;fontSize=11;fontColor=default;labelBackgroundColor=default;edgeStyle=orthogonalEdgeStyle;" edge="1" parent="1">
          <mxGeometry width="50" height="50" relative="1" as="geometry">
            <mxPoint x="162.28" y="510" as="sourcePoint" />
            <mxPoint x="162.28" y="560" as="targetPoint" />
          </mxGeometry>
        </mxCell>
        <mxCell id="PJtLWt17phJKSAp1JQ1G-6" value="&lt;font style=&quot;font-size: 12px;&quot;&gt;&quot;Inseria senha atual&quot;&lt;/font&gt;" style="shape=tape;whiteSpace=wrap;html=1;fontFamily=Helvetica;fontSize=11;fontColor=default;labelBackgroundColor=default;" vertex="1" parent="1">
          <mxGeometry x="90" y="550" width="120" height="100" as="geometry" />
        </mxCell>
        <mxCell id="PJtLWt17phJKSAp1JQ1G-8" value="" style="endArrow=classic;html=1;rounded=0;strokeColor=default;align=center;verticalAlign=middle;fontFamily=Helvetica;fontSize=11;fontColor=default;labelBackgroundColor=default;edgeStyle=orthogonalEdgeStyle;exitX=1;exitY=0.5;exitDx=0;exitDy=0;exitPerimeter=0;" edge="1" parent="1" source="PJtLWt17phJKSAp1JQ1G-6">
          <mxGeometry width="50" height="50" relative="1" as="geometry">
            <mxPoint x="220" y="600" as="sourcePoint" />
            <mxPoint x="280" y="600" as="targetPoint" />
            <Array as="points">
              <mxPoint x="260" y="600" />
              <mxPoint x="260" y="600" />
            </Array>
          </mxGeometry>
        </mxCell>
        <mxCell id="PJtLWt17phJKSAp1JQ1G-13" value="&quot;Senha correta&quot;" style="shape=tape;whiteSpace=wrap;html=1;fontFamily=Helvetica;fontSize=11;fontColor=default;labelBackgroundColor=default;" vertex="1" parent="1">
          <mxGeometry x="280" y="550" width="120" height="100" as="geometry" />
        </mxCell>
        <mxCell id="PJtLWt17phJKSAp1JQ1G-14" value="" style="endArrow=classic;html=1;rounded=0;strokeColor=default;align=center;verticalAlign=middle;fontFamily=Helvetica;fontSize=11;fontColor=default;labelBackgroundColor=default;edgeStyle=orthogonalEdgeStyle;" edge="1" parent="1">
          <mxGeometry width="50" height="50" relative="1" as="geometry">
            <mxPoint x="159.52" y="620" as="sourcePoint" />
            <mxPoint x="160" y="680" as="targetPoint" />
          </mxGeometry>
        </mxCell>
        <mxCell id="PJtLWt17phJKSAp1JQ1G-15" value="&quot;Senha incorreta&quot;" style="shape=tape;whiteSpace=wrap;html=1;fontFamily=Helvetica;fontSize=11;fontColor=default;labelBackgroundColor=default;" vertex="1" parent="1">
          <mxGeometry x="100" y="660" width="120" height="100" as="geometry" />
        </mxCell>
        <mxCell id="PJtLWt17phJKSAp1JQ1G-16" value="" style="curved=1;endArrow=classic;html=1;rounded=0;strokeColor=default;align=center;verticalAlign=middle;fontFamily=Helvetica;fontSize=11;fontColor=default;labelBackgroundColor=default;edgeStyle=orthogonalEdgeStyle;exitX=0.583;exitY=0.688;exitDx=0;exitDy=0;exitPerimeter=0;" edge="1" parent="1" source="PJtLWt17phJKSAp1JQ1G-15">
          <mxGeometry width="50" height="50" relative="1" as="geometry">
            <mxPoint x="173.76" y="753.3" as="sourcePoint" />
            <mxPoint x="90" y="600" as="targetPoint" />
            <Array as="points">
              <mxPoint x="174" y="729" />
              <mxPoint x="174" y="830" />
              <mxPoint x="50" y="830" />
              <mxPoint x="50" y="600" />
            </Array>
          </mxGeometry>
        </mxCell>
        <mxCell id="PJtLWt17phJKSAp1JQ1G-17" value="" style="endArrow=classic;html=1;rounded=0;strokeColor=default;align=center;verticalAlign=middle;fontFamily=Helvetica;fontSize=11;fontColor=default;labelBackgroundColor=default;edgeStyle=orthogonalEdgeStyle;exitX=1;exitY=0.5;exitDx=0;exitDy=0;exitPerimeter=0;" edge="1" parent="1" target="PJtLWt17phJKSAp1JQ1G-18">
          <mxGeometry width="50" height="50" relative="1" as="geometry">
            <mxPoint x="400" y="599.69" as="sourcePoint" />
            <mxPoint x="470" y="599.69" as="targetPoint" />
            <Array as="points">
              <mxPoint x="450" y="599.69" />
              <mxPoint x="450" y="599.69" />
            </Array>
          </mxGeometry>
        </mxCell>
        <mxCell id="PJtLWt17phJKSAp1JQ1G-18" value="Criar nova senha" style="shape=parallelogram;perimeter=parallelogramPerimeter;whiteSpace=wrap;html=1;fixedSize=1;fontFamily=Helvetica;fontSize=11;fontColor=default;labelBackgroundColor=default;" vertex="1" parent="1">
          <mxGeometry x="450" y="570" width="120" height="60" as="geometry" />
        </mxCell>
        <mxCell id="PJtLWt17phJKSAp1JQ1G-19" value="" style="endArrow=classic;html=1;rounded=0;strokeColor=default;align=center;verticalAlign=middle;fontFamily=Helvetica;fontSize=11;fontColor=default;labelBackgroundColor=default;edgeStyle=orthogonalEdgeStyle;" edge="1" parent="1" target="PJtLWt17phJKSAp1JQ1G-20">
          <mxGeometry width="50" height="50" relative="1" as="geometry">
            <mxPoint x="560" y="600" as="sourcePoint" />
            <mxPoint x="610" y="550" as="targetPoint" />
          </mxGeometry>
        </mxCell>
        <mxCell id="PJtLWt17phJKSAp1JQ1G-20" value="Senha" style="rhombus;whiteSpace=wrap;html=1;fontFamily=Helvetica;fontSize=11;fontColor=default;labelBackgroundColor=default;" vertex="1" parent="1">
          <mxGeometry x="580" y="450" width="80" height="80" as="geometry" />
        </mxCell>
        <mxCell id="PJtLWt17phJKSAp1JQ1G-21" value="Fim" style="ellipse;whiteSpace=wrap;html=1;fontFamily=Helvetica;fontSize=11;fontColor=default;labelBackgroundColor=default;" vertex="1" parent="1">
          <mxGeometry x="560" y="310" width="120" height="80" as="geometry" />
        </mxCell>
        <mxCell id="PJtLWt17phJKSAp1JQ1G-22" value="" style="endArrow=classic;html=1;rounded=0;strokeColor=default;align=center;verticalAlign=middle;fontFamily=Helvetica;fontSize=11;fontColor=default;labelBackgroundColor=default;edgeStyle=orthogonalEdgeStyle;exitX=0.5;exitY=0;exitDx=0;exitDy=0;entryX=0.5;entryY=1;entryDx=0;entryDy=0;" edge="1" parent="1" source="PJtLWt17phJKSAp1JQ1G-20" target="PJtLWt17phJKSAp1JQ1G-21">
          <mxGeometry width="50" height="50" relative="1" as="geometry">
            <mxPoint x="610" y="430" as="sourcePoint" />
            <mxPoint x="680" y="430" as="targetPoint" />
            <Array as="points" />
          </mxGeometry>
        </mxCell>
      </root>
    </mxGraphModel>
  </diagram>
</mxfile>
